# xmcd
#
# Track frame offsets:
#  150
#  13903
#  27015
#  44765
#  61396
#  76454
#  91906
#  106870
#  117051
#  141621
#  159761
#  176866
#  190713
#  206884
#  222453
#  242946
#
# Disc length: 3441 seconds
#
# Revision: 1
# Processed by: cddbd v1.5.1PL0 Copyright (c) Steve Scherf et al.
# Submitted via: AltoMP3_Maker 3.0
#
DISCID=e60d6f10
DTITLE=Jimmy Buffett - License To Chill
DYEAR=1900
DGENRE=
TTITLE0=Hey Good Lookin (w-Clint Black, Kenny Chesney, Alan Jackson, Toby Keith and George Strait)
TTITLE1=Boats To Build (With Alan Jackson)
TTITLE2=License To Chill (With Kenny Chesney)
TTITLE3=Coast Of Carolina
TTITLE4=Piece Of Work (With Toby Keith)
TTITLE5=Anything Anytime Anywhere
TTITLE6=Trip Around The Sun (With Martina McBride)
TTITLE7=Simply Complicated
TTITLE8=Coastal Confessions
TTITLE9=Sea Of Heartbreak (With George Strait)
TTITLE10=Conky Tonkin (With Clint Black)
TTITLE11=Playin The Loser Again (With Bill Withers)
TTITLE12=Window On The World
TTITLE13=Someone I Used To Love (With Nanci Griffith)
TTITLE14=Scarlet Begonias
TTITLE15=Back To The Island
EXTD=
EXTT0=
EXTT1=
EXTT2=
EXTT3=
EXTT4=
EXTT5=
EXTT6=
EXTT7=
EXTT8=
EXTT9=
EXTT10=
EXTT11=
EXTT12=
EXTT13=
EXTT14=
EXTT15=
PLAYORDER=
